<svg width="64" height="196" viewBox="0 0 64 196" fill="none" xmlns="http://www.w3.org/2000/svg">
<g clip-path="url(#clip0)">
<path d="M46.5213 194.085C42.8656 194.186 39.2267 194.018 35.571 193.85C25.3921 193.381 15.1964 192.911 5.01748 192.442C3.44117 192.375 1.37856 191.838 1.2444 190.144C1.12702 188.618 2.7201 187.679 4.07841 187.243C8.92472 185.717 14.0561 185.499 19.1036 185.331C26.5492 185.08 33.9947 184.896 41.4403 184.778C46.0853 184.711 50.8646 184.678 55.2246 186.472C57.6058 187.444 61.1609 191.435 57.4213 193.247C56.3816 193.75 54.2687 193.465 53.162 193.582C50.9484 193.834 48.7516 194.018 46.5213 194.085Z" fill="url(#paint0_linear)"/>
<path d="M46.5291 194.085C42.8734 194.186 39.2345 194.018 35.5788 193.85C25.3999 193.381 15.2042 192.911 5.02529 192.442C3.44899 192.375 1.38637 191.838 1.25222 190.144C1.13483 188.618 2.72791 187.679 4.08622 187.243C8.93253 185.717 14.0639 185.499 19.1114 185.331C26.557 185.08 34.0025 184.896 41.4481 184.778C46.0931 184.711 50.8724 184.678 55.2324 186.472C57.6136 187.444 61.1687 191.435 57.4291 193.247C56.3894 193.75 54.2766 193.465 53.1698 193.582C50.9563 193.834 48.7594 194.018 46.5291 194.085Z" fill="url(#paint1_linear)"/>
<path d="M42.7604 90.1835C42.7604 90.1835 45.1416 173.61 45.1752 186.439H41.1841C41.1841 186.439 34.5603 109.988 30.6866 106.148C30.6866 106.148 29.0767 105.846 28.4563 106.148C27.8358 106.449 25.639 182.263 26.6619 187.026L23.0734 187.277C23.0734 187.277 14.1354 109.015 14.6887 90.7202C14.6887 90.7202 14.3366 81.5306 26.6787 82.3523C39.0376 83.1573 41.5195 81.0443 42.7604 90.1835Z" fill="#EBEFEB"/>
<path d="M40.1949 186.573C42.1737 186.321 44.1693 186.254 46.148 186.388C47.7243 187.193 49.418 187.83 51.2123 188.283C51.7322 188.417 52.2688 188.535 52.6712 188.837C53.0737 189.138 53.2582 189.658 52.9228 190.01C52.6377 190.329 52.1011 190.396 51.6148 190.43C47.9591 190.698 44.2699 190.681 40.6309 190.396C40.4129 190.379 40.1782 190.363 40.0105 190.245C39.8763 190.161 39.8093 190.01 39.759 189.893C39.323 188.803 39.4906 187.562 40.1949 186.573Z" fill="#333333"/>
<path d="M27.6384 186.422C27.6384 186.422 22.9263 186.153 22.1717 186.422C21.417 186.69 20.2432 189.658 21.3332 190.212C22.4232 190.765 33.4406 190.765 33.4406 190.765C33.4406 190.765 34.6983 189.625 31.596 188.535C28.4769 187.445 27.9738 187.411 27.6384 186.422Z" fill="#333333"/>
<path d="M50.7462 73.3809C50.9977 72.5425 51.0648 71.6537 51.3499 70.8152C51.6182 70.0103 52.071 69.2892 52.4902 68.5514C54.1 65.6671 53.9324 61.8605 54.4354 58.6073C54.8379 56.0416 54.9385 53.4087 55.844 50.9772C56.0285 50.4741 57.3197 50.3735 57.8563 50.2897C58.9128 50.122 60.137 50.3399 60.8245 50.5412C62.0151 50.8933 62.3002 51.2455 62.753 52.3858C62.9877 52.9728 63.0045 53.6267 63.0213 54.264C63.0548 55.4546 63.0716 56.6284 63.1051 57.819C63.1386 58.9426 63.1554 60.0829 62.9877 61.1897C62.8703 61.9611 62.6523 62.6989 62.4343 63.4367C61.0425 68.065 59.2985 72.5927 57.2527 76.9863C56.9508 77.6235 56.6154 78.2942 55.995 78.6296C55.4416 78.9315 54.754 78.9147 54.1168 78.8476C53.446 78.7805 52.7753 78.6632 52.1045 78.5123C51.1151 78.2943 50.176 77.8248 49.9077 76.7348C49.6226 75.628 50.4276 74.4039 50.7462 73.3809Z" fill="#191919"/>
<path d="M50.6932 64.9126C50.8106 64.6107 51.0789 64.3594 51.4143 64.3426C51.7664 64.3258 52.0683 64.5941 52.4037 64.7283C52.7894 64.8792 53.2086 64.8623 53.6278 64.9126C54.0471 64.9629 54.483 65.1308 54.6507 65.4997C54.8352 65.9189 54.6172 66.4219 54.2818 66.7238C53.7117 67.2604 52.8229 67.4449 52.1018 67.1766L51.2969 66.7574C51.1963 66.5394 50.8777 66.556 50.71 66.3883C50.5758 66.2541 50.5758 66.053 50.5758 65.8685C50.559 65.5332 50.5758 65.2144 50.6932 64.9126Z" fill="#EADDD0"/>
<path d="M62.2336 52.1508C62.1665 51.9495 62.0827 51.7651 61.915 51.6309C61.7473 51.4968 61.5293 51.4632 61.3113 51.4297C59.7853 51.1446 58.7456 51.1614 57.3705 50.9769C56.8675 50.9098 56.3811 51.1278 56.0793 51.5303C55.6265 52.1508 55.2073 52.6538 55.1402 53.5091C54.721 59.0261 53.1279 64.7109 50.4951 69.574L50.3107 75.1246C49.774 75.6109 50.361 75.6947 50.8641 76.2314C51.5013 76.9189 52.541 77.0866 53.413 77.2208C54.0502 77.3214 54.6875 77.3382 55.3247 77.3214C55.5595 77.3214 55.811 77.3046 56.029 77.1704C56.247 77.0363 56.3811 76.8015 56.4985 76.5835C59.9027 70.1106 60.6908 63.6042 62.2671 56.5108C62.569 55.0687 62.6361 53.5594 62.2336 52.1508Z" fill="#EDEDED"/>
<path d="M60.2359 68.635C60.6383 68.4338 61.0408 68.199 61.3091 67.8468C61.8121 67.1928 61.8122 66.2873 61.7954 65.4488C61.7786 65.1134 61.7283 64.711 61.4265 64.5936C61.0072 64.4259 60.5545 64.9625 60.1353 64.8116C60.2023 64.4427 60.2694 64.057 60.1688 63.7049C60.0682 63.3527 59.716 63.0341 59.3471 63.0844C59.1291 63.7049 59.2633 64.4594 58.8776 65.0128C58.4248 65.6836 57.4522 65.7004 56.7311 66.1028C56.1442 66.4215 55.7585 67.0084 55.3728 67.5618C54.7523 68.4841 55.2889 69.4903 56.3454 69.6077C57.6199 69.7083 59.1459 69.1716 60.2359 68.635Z" fill="#EADDD0"/>
<path d="M38.9221 59.2611C41.8232 62.8665 46.4012 65.3819 51.2978 65.8179C51.3984 65.8347 51.5158 65.8346 51.6164 65.7843C51.7505 65.7173 51.8009 65.5663 51.8344 65.4321C51.9182 65.1135 52.0021 64.795 52.0692 64.4596C52.1363 64.1913 52.2033 63.9062 52.1698 63.6211C52.086 62.9839 51.4487 62.5312 50.8785 62.1622C49.6041 61.3741 48.2625 60.653 47.2061 59.6468C44.7242 57.2992 44.1205 53.8615 43.1312 50.7424C42.1585 47.6904 40.7164 44.7725 38.8382 42.0894C38.6035 41.7708 38.352 41.4186 37.9663 41.2509C37.2284 40.9323 36.3564 41.3851 35.803 41.9552C34.7298 43.062 34.3273 44.6719 34.6962 46.0973C35.0652 47.5059 35.1322 48.7133 35.2664 50.189C35.585 53.4422 36.8092 56.6283 38.9221 59.2611Z" fill="#565772"/>
<path d="M34.8168 33.1515C32.553 32.1454 30.2556 31.1895 27.9414 30.3008C28.914 28.4058 28.4948 26.1253 28.629 23.9956C28.8134 21.1113 30.0543 18.4115 31.3456 15.829C32.3685 13.7328 33.492 11.5863 35.3366 10.1777C35.7056 9.89265 36.1248 9.64105 36.5775 9.59075C36.98 9.55721 37.3657 9.6746 37.7346 9.80875C41.2897 10.9659 44.9119 12.1565 48.031 14.2191C48.2657 14.37 48.5005 14.5378 48.5843 14.7893C48.6682 15.0241 48.6179 15.2756 48.5843 15.5104C47.3099 21.8995 44.4424 27.953 40.3339 33.0006C38.5564 33.4198 36.7285 33.4534 34.8168 33.1515Z" fill="#EADDD0"/>
<path d="M36.8126 36.8914C36.1921 36.6399 35.5885 36.3547 34.9848 36.0864C31.9495 34.6946 28.9311 33.3028 25.8958 31.9277C25.4431 31.7264 24.9735 31.5085 24.504 31.6258C24.1351 31.7097 23.8332 31.9948 23.5481 32.2631C17.8969 37.7131 16.3541 46.5672 14.8114 54.6332C9.32782 83.1241 7.6006 112.554 9.71353 141.615C23.2128 144.365 36.8797 146.159 50.5801 146.981C49.8255 146.931 48.2492 127.026 48.0647 125.064C47.0251 113.56 46.4717 101.989 46.5723 90.402C46.6729 78.7809 46.1531 67.2101 45.4487 55.6226C45.1637 50.9272 44.8451 46.2486 44.4762 41.57C44.342 39.7421 39.8981 37.8472 38.7746 37.5453C38.1038 37.3776 37.4498 37.1429 36.8126 36.8914Z" fill="#5C5D7A"/>
<path d="M29.182 72.056C30.0875 75.1248 31.4124 78.5624 34.414 79.686C36.376 80.4238 38.5728 79.9376 40.5851 79.3171C44.593 78.0929 48.4667 76.3824 52.072 74.236C54.3527 72.8777 56.8177 70.7815 56.4823 68.1487C56.432 67.7463 56.2979 67.3271 55.9792 67.0588C55.2414 66.4551 54.1514 67.0588 53.38 67.6122C49.5734 70.3624 44.9787 72.056 40.2833 72.4082C39.6964 72.4585 39.0926 72.4752 38.5225 72.274C37.0635 71.7542 36.5269 70.0102 36.2083 68.5009C34.9339 62.5143 33.9445 56.4606 33.257 50.3734C33.1228 49.1995 32.9886 47.9922 32.4352 46.9525C31.5632 45.3427 29.6515 44.3532 27.8237 44.6048C21.9042 45.4097 24.537 52.6372 25.2916 56.3265C26.3816 61.6255 27.6728 66.8743 29.182 72.056Z" fill="#565772"/>
<path d="M52.0338 77.523C52.1009 77.4894 52.168 77.5062 52.2518 77.5062C52.386 77.523 52.5202 77.5564 52.6376 77.6067C52.6879 77.6235 52.7381 77.657 52.7717 77.6905C52.8052 77.7241 52.8388 77.7912 52.822 77.8415C52.8052 77.9086 52.7549 77.9422 52.6879 77.959C52.6208 77.9758 52.5537 77.959 52.5034 77.9422C52.386 77.9422 51.6146 77.6907 52.0338 77.523Z" fill="#EDEDED"/>
<path d="M42.1095 17.3548C40.7344 17.1871 39.3928 16.5666 38.001 16.6505C35.9384 16.7846 34.1776 18.7634 34.2782 20.826C33.641 20.9937 33.5068 19.7695 32.8696 19.6353C32.3162 19.518 32.0312 20.2726 32.0479 20.826C32.115 24.2637 34.5466 27.1312 36.039 30.2335C37.3973 33.0843 37.9842 36.3208 37.7159 39.4734C37.5986 40.8149 37.2799 42.2403 36.3241 43.1962C35.3682 44.152 33.6074 44.4036 32.7019 43.3974C33.8422 43.649 34.9826 42.844 35.5695 41.8211C36.5589 40.0939 36.2402 37.8635 35.2844 36.1195C34.3285 34.3755 32.8193 33.0172 31.3436 31.6924C30.8741 31.2732 30.3375 30.8205 29.7003 30.7869C28.8786 30.7534 28.2078 31.4409 27.6711 32.0614C26.3967 33.5203 25.0887 35.0463 24.5185 36.9077C23.7136 39.5237 24.4179 42.5421 23.0429 44.9066C22.1206 46.4661 20.3933 47.489 19.7393 49.1827C19.1524 50.7087 19.5548 52.5199 18.7667 53.962C18.0791 55.2197 16.6538 55.8737 15.2787 56.2762C13.6185 56.7793 11.4553 56.8966 10.5162 55.4377C11.6398 54.5489 12.7968 53.3248 12.6459 51.8994C12.4782 50.4573 11.0193 49.4008 10.8851 47.9586C10.7007 46.0637 12.8639 44.4874 12.6124 42.5924C12.3273 40.4627 9.17469 39.4398 9.24177 37.2766C9.32561 35.0798 12.7633 34.0905 12.6962 31.877C12.6291 29.5293 8.62129 28.5902 8.93991 26.276C9.07406 25.2531 10.0802 24.5655 11.0696 24.2637C12.059 23.9618 13.1155 23.9283 14.0713 23.5258C15.0272 23.1234 15.8824 22.1843 15.6979 21.1614C15.3961 19.5516 12.9142 19.1994 12.4615 17.6231C12.1428 16.4996 13.0651 15.3592 14.1551 14.94C15.2451 14.5208 16.4358 14.5879 17.5928 14.4705C18.7499 14.3531 19.9909 13.9506 20.5778 12.9444C21.215 11.8544 20.8293 10.4626 20.8964 9.20488C20.997 7.20935 22.305 5.38144 24.0658 4.42559C25.8265 3.46975 27.9562 3.31892 29.8847 3.78846C30.4045 3.92261 30.9412 4.09022 31.4778 4.02315C31.9641 3.97284 32.4001 3.73811 32.8361 3.53688C37.2799 1.47426 42.8138 1.92705 46.8551 4.71074C48.2805 5.70013 49.5886 7.04169 49.9742 8.71861C50.2425 9.85892 50.0581 11.0998 49.4544 12.1228C47.811 14.9568 45.8155 17.7908 42.1095 17.3548Z" fill="#EBEFEB"/>
<path d="M50.5167 10.7307C51.0533 13.179 51.2546 15.7112 51.1204 18.2266C51.0701 19.0315 50.9862 19.8532 50.6676 20.6078C50.349 21.3624 49.7621 22.0332 48.9907 22.2679C48.2193 22.5195 47.2635 22.2512 46.861 21.5301C46.643 21.1444 46.6095 20.6916 46.6095 20.2556C46.6095 19.1153 46.8275 17.8576 46.1735 16.9018C45.3015 15.5938 43.1718 15.4429 42.5345 14.0007C42.1321 13.0784 42.5346 11.9716 43.2556 11.2505C43.9767 10.5462 44.9326 10.1605 45.8716 9.7748C47.4647 9.15434 50.0136 8.43328 50.5167 10.7307Z" fill="#EBEFEB"/>
<path d="M41.1777 13.2965C38.4108 15.3089 36.0631 18.0758 35.1073 21.3625C34.5371 23.3748 34.5036 25.5045 34.6209 27.6006C34.1011 26.779 33.6316 26.5945 33.6148 25.3033C33.5981 24.2636 33.2459 21.5302 33.1453 20.5073C33.0614 19.5347 33.313 18.6962 33.0447 17.7571C32.2062 14.8225 31.9043 11.9215 31.0659 8.98679C30.7305 7.79618 30.3783 6.60561 30.3951 5.36468C30.4119 4.14053 30.8143 2.84924 31.7534 2.06109C32.7596 1.22263 34.1514 1.07171 35.4427 1.02141C38.5282 0.904025 41.6808 1.18908 44.5316 2.36293C46.0408 2.98339 47.4494 3.87218 48.6233 5.01249C49.1096 5.48203 51.625 8.18184 51.0045 8.85261C50.8703 9.00353 49.4953 9.00356 49.227 9.0874C48.2879 9.37248 47.3488 9.87559 46.4601 10.2781C44.6322 11.1333 42.8211 12.0892 41.1777 13.2965Z" fill="#5C5D7A"/>
</g>
<defs>
<linearGradient id="paint0_linear" x1="58.9285" y1="188.418" x2="1.30491" y2="191.255" gradientUnits="userSpaceOnUse">
<stop stop-color="#4D4D4D"/>
<stop offset="1"/>
</linearGradient>
<linearGradient id="paint1_linear" x1="58.9363" y1="188.418" x2="1.31272" y2="191.255" gradientUnits="userSpaceOnUse">
<stop/>
<stop offset="1"/>
</linearGradient>
<clipPath id="clip0">
<rect width="63" height="195" fill="white" transform="translate(0.6875 0.0102539)"/>
</clipPath>
</defs>
</svg>
